<svg width="15" height="15" viewBox="0 0 15 15" fill="none" xmlns="http://www.w3.org/2000/svg">
<path d="M15 7.15004C15.0215 8.31222 14.7917 9.46528 14.3264 10.53C13.9105 11.4839 13.2734 12.3245 12.4681 12.9819C11.6628 13.6394 10.7125 14.0947 9.69617 14.31C8.31123 14.6512 6.85735 14.5835 5.50996 14.115C4.5309 13.7938 3.64162 13.2449 2.9149 12.5132C2.18817 11.7814 1.64463 10.8877 1.32874 9.90504C1.02525 8.9972 0.88832 8.04178 0.924588 7.08504C0.93501 6.22524 1.08326 5.3727 1.36366 4.56004C1.74034 3.438 2.41016 2.4376 3.30344 1.66291C4.19673 0.888223 5.28084 0.367545 6.443 0.155044C7.77244 -0.122799 9.15226 -0.0329226 10.4346 0.415044C11.3952 0.73898 12.2673 1.28266 12.9818 2.00299C13.6963 2.72332 14.2335 3.60051 14.551 4.56504C14.7832 5.20858 14.9227 5.88203 14.9651 6.56504C14.9801 6.80004 14.995 7.03004 15 7.15004ZM12.6051 7.27004C12.6051 7.00004 12.5701 6.72504 12.5402 6.45504C12.4762 5.79789 12.2901 5.15855 11.9913 4.57004C11.7364 4.04153 11.3752 3.57151 10.9305 3.18948C10.4857 2.80746 9.96697 2.52167 9.40678 2.35004C8.70297 2.13325 7.9597 2.07688 7.23134 2.18504C6.13981 2.31857 5.14302 2.87271 4.45218 3.73004C3.94751 4.35316 3.60467 5.09181 3.45428 5.88004C3.30796 6.5581 3.2709 7.25525 3.34451 7.94504C3.41432 8.62968 3.6088 9.29569 3.9183 9.91004C4.38832 10.9058 5.22537 11.6801 6.2534 12.07C6.94818 12.3337 7.69479 12.4313 8.43382 12.355C9.09211 12.3036 9.73097 12.1072 10.3049 11.78C11.1749 11.2608 11.838 10.4549 12.1809 9.50004C12.4558 8.78855 12.5995 8.03297 12.6051 7.27004Z" fill="black"/>
</svg>
