<svg width="15" height="15" viewBox="0 0 15 15" fill="none" xmlns="http://www.w3.org/2000/svg">
<path d="M0.0414176 0.775234C0.0746373 0.772816 0.107987 0.772816 0.141206 0.775234H3.45924C3.52454 0.846366 3.56787 0.934936 3.58398 1.03023C4.17607 2.80356 4.77148 4.5769 5.37023 6.35023L7.27123 12.0002C7.27123 12.0852 7.33111 12.1652 7.37601 12.2802C7.42092 12.1702 7.45584 12.0952 7.48079 12.0202L9.57639 5.83523L11.208 1.00023C11.2379 0.915233 11.2728 0.830234 11.3078 0.740234H14.6258H14.7405C14.7554 0.764793 14.7656 0.791926 14.7705 0.820232C14.7705 5.43023 14.7705 10.0402 14.7705 14.6502C14.7739 14.6801 14.7739 14.7103 14.7705 14.7402C14.7705 14.7402 14.7356 14.7402 14.7206 14.7402H12.5801H12.4753C12.4753 14.6952 12.4753 14.6552 12.4753 14.6202C12.4753 14.5852 12.4753 14.4552 12.4753 14.3702C12.4753 10.8669 12.4753 7.3669 12.4753 3.87023C12.489 3.76065 12.4771 3.64937 12.4404 3.54523C12.2757 3.94523 12.166 4.32523 12.0362 4.69023C11.9065 5.05523 11.7818 5.44023 11.652 5.81523C11.5223 6.19023 11.4026 6.55023 11.2728 6.91523C11.1431 7.28023 11.0184 7.66023 10.8886 8.03523L10.5044 9.16023C10.3747 9.53523 10.25 9.91023 10.1202 10.2802C9.99052 10.6502 9.86579 11.0302 9.73606 11.4052C9.60633 11.7802 9.48658 12.1352 9.35685 12.5052C9.22713 12.8752 9.10239 13.2502 8.97266 13.6252C8.84293 14.0002 8.71819 14.3752 8.59346 14.7402C8.39887 14.7802 6.72737 14.7952 6.21345 14.7402C6.13362 14.6852 6.12364 14.5852 6.0987 14.5052L4.83136 10.9002L2.44637 3.90023C2.44637 3.82523 2.39148 3.75023 2.35656 3.67023C2.29169 3.67023 2.31664 3.74523 2.31664 3.77523C2.31664 3.80523 2.31664 3.94023 2.31664 4.02523V14.4702C2.31664 14.5702 2.31664 14.6652 2.31664 14.7702C2.28333 14.7852 2.24804 14.7953 2.21186 14.8002H0.10628H0.0464044C0.0318612 14.7577 0.0201927 14.7143 0.0114779 14.6702C0.0114779 14.6052 0.0114779 14.5402 0.0114779 14.4752V1.09523C-0.00344545 0.987684 0.00680631 0.87813 0.0414176 0.775234Z" fill="black"/>
</svg>
