<svg width="12" height="15" viewBox="0 0 12 15" fill="none" xmlns="http://www.w3.org/2000/svg">
<path d="M8.26268 7.99992L8.50218 8.10992C9.16201 8.38786 9.69052 8.90853 9.97908 9.56492C10.1299 9.89413 10.2421 10.2398 10.3134 10.5949C10.5595 11.7349 10.8024 12.8716 11.0418 14.0049C11.0418 14.0949 11.0768 14.1799 11.0917 14.2849C11.051 14.2971 11.0093 14.3055 10.967 14.3099H8.77162H8.70176C8.70176 14.2599 8.65686 14.1999 8.64189 14.1399C8.44231 13.1899 8.24106 12.2399 8.03816 11.2899C7.98826 11.0449 7.91841 10.7899 7.85354 10.5699C7.83884 10.5148 7.81879 10.4612 7.79367 10.4099C7.65361 9.98792 7.39595 9.6149 7.05114 9.33493C6.70633 9.05496 6.28876 8.87972 5.84776 8.82992C5.57821 8.79254 5.30656 8.7725 5.03446 8.76992H2.96381C2.87854 8.75387 2.79035 8.76801 2.71434 8.80992C2.6844 9.06492 2.71434 9.30992 2.71434 9.58992V14.2949C2.67172 14.3062 2.62837 14.3146 2.58461 14.3199H0.444103C0.407577 14.323 0.370858 14.323 0.334333 14.3199V14.1749C0.331834 14.1266 0.331834 14.0782 0.334333 14.0299V0.589918C0.334333 0.489918 0.334333 0.394918 0.334333 0.284918C0.404122 0.280678 0.474104 0.280678 0.543893 0.284918H6.18704C6.84566 0.277725 7.5011 0.377345 8.12797 0.579918C8.49562 0.700865 8.84612 0.868924 9.17078 1.07992C9.89975 1.55136 10.432 2.27317 10.6676 3.10992C10.8921 3.89241 10.8921 4.72243 10.6676 5.50492C10.5362 5.98803 10.3047 6.43802 9.98841 6.82565C9.67207 7.21329 9.2779 7.5299 8.83149 7.75492C8.74667 7.80492 8.65686 7.84492 8.56704 7.88992L8.26268 7.99992ZM2.71434 6.65992H6.34172C6.60492 6.64956 6.86458 6.59549 7.1101 6.49992C7.41438 6.39135 7.6871 6.20895 7.90389 5.96902C8.12068 5.72909 8.2748 5.43909 8.3525 5.12492C8.41737 4.87716 8.43764 4.6198 8.41237 4.36492C8.39377 3.97553 8.26202 3.60007 8.03332 3.28472C7.80461 2.96936 7.48892 2.72787 7.12507 2.58992C6.835 2.47135 6.52524 2.40859 6.21199 2.40492H2.99375C2.90784 2.38934 2.81924 2.39979 2.73928 2.43492C2.70436 2.67992 2.68939 4.93492 2.73928 6.46992C2.69937 6.49992 2.70935 6.56992 2.71434 6.65992Z" fill="black"/>
</svg>
